# xmcd
#
# Track frame offsets: 
#        150
#        5344
#        7123
#        25725
#        69809
#        71289
#        245312
#        262319
#        263293
#        293961
#        297132
#        300241
#        300807
#        301395
#        302153
#
# Disc length: 4037 seconds
#
# Revision: 0
# Processed by: cddbd v1.5.2PL0 Copyright (c) Steve Scherf et al.
# Submitted via: ExactAudioCopy v0.95b3
#
DISCID=b70fc30f
DTITLE=The Beatles  - AB  Road - Complete Purple Chick Set v1.1 Jan.13
DTITLE=Various Artist - D2  FLAC
DYEAR=1900
DGENRE=
TTITLE0=Dialogue
TTITLE1=Baby, Come Back 13.04
TTITLE2=Build Me Up, Buttercup 13.05
TTITLE3=Build Me Up, Buttercup 13.06
TTITLE4=Build Me Up, Buttercup 13.07
TTITLE5=Dialogue
TTITLE6=Dialogue
TTITLE7=Roll Announcement
TTITLE8=Dialogue
TTITLE9=Dialogue
TTITLE10=Dialogue
TTITLE11=Dialogue
TTITLE12=Roll Announcement
TTITLE13=Slate Announcement
TTITLE14=Dialogue
EXTD=
EXTT0=
EXTT1=
EXTT2=
EXTT3=
EXTT4=
EXTT5=
EXTT6=
EXTT7=
EXTT8=
EXTT9=
EXTT10=
EXTT11=
EXTT12=
EXTT13=
EXTT14=
PLAYORDER=
